<svg xmlns="http://www.w3.org/2000/svg" width="700" height="700" viewBox="0 0 700 700"><g transform="rotate(-18 300 330)"><path d="M 300 120 C 499.5 214.5 499.5 445.5 300 540 C 100.5 445.5 100.5 214.5 300 120 Z" fill="#D8B98A"/><path d="M 300 330 L 462 389" stroke="#C9A872" stroke-width="4" stroke-linecap="round"/><path d="M 300 330 L 386 479" stroke="#C9A872" stroke-width="4" stroke-linecap="round"/><path d="M 300 330 L 241 492" stroke="#C9A872" stroke-width="4" stroke-linecap="round"/><path d="M 300 330 L 151 416" stroke="#C9A872" stroke-width="4" stroke-linecap="round"/><path d="M 300 330 L 138 271" stroke="#C9A872" stroke-width="4" stroke-linecap="round"/><path d="M 300 330 L 214 181" stroke="#C9A872" stroke-width="4" stroke-linecap="round"/><path d="M 300 330 L 359 168" stroke="#C9A872" stroke-width="4" stroke-linecap="round"/><path d="M 300 330 L 449 244" stroke="#C9A872" stroke-width="4" stroke-linecap="round"/><line x1="300" y1="120" x2="300" y2="540" stroke="#C9A872" stroke-width="6"/></g><g transform="rotate(28 480 440)"><path d="M 480 290 C 622.5 357.5 622.5 522.5 480 590 C 337.5 522.5 337.5 357.5 480 290 Z" fill="#D8B98A"/><path d="M 480 440 L 596 482" stroke="#C9A872" stroke-width="4" stroke-linecap="round"/><path d="M 480 440 L 542 547" stroke="#C9A872" stroke-width="4" stroke-linecap="round"/><path d="M 480 440 L 438 556" stroke="#C9A872" stroke-width="4" stroke-linecap="round"/><path d="M 480 440 L 373 502" stroke="#C9A872" stroke-width="4" stroke-linecap="round"/><path d="M 480 440 L 364 398" stroke="#C9A872" stroke-width="4" stroke-linecap="round"/><path d="M 480 440 L 418 333" stroke="#C9A872" stroke-width="4" stroke-linecap="round"/><path d="M 480 440 L 522 324" stroke="#C9A872" stroke-width="4" stroke-linecap="round"/><path d="M 480 440 L 587 378" stroke="#C9A872" stroke-width="4" stroke-linecap="round"/><line x1="480" y1="290" x2="480" y2="590" stroke="#C9A872" stroke-width="6"/></g><g transform="rotate(-45 250 520)"><path d="M 250 400 C 364.0 454.0 364.0 586.0 250 640 C 136.0 586.0 136.0 454.0 250 400 Z" fill="#D8B98A"/><path d="M 250 520 L 342 554" stroke="#C9A872" stroke-width="4" stroke-linecap="round"/><path d="M 250 520 L 299 605" stroke="#C9A872" stroke-width="4" stroke-linecap="round"/><path d="M 250 520 L 216 612" stroke="#C9A872" stroke-width="4" stroke-linecap="round"/><path d="M 250 520 L 165 569" stroke="#C9A872" stroke-width="4" stroke-linecap="round"/><path d="M 250 520 L 158 486" stroke="#C9A872" stroke-width="4" stroke-linecap="round"/><path d="M 250 520 L 201 435" stroke="#C9A872" stroke-width="4" stroke-linecap="round"/><path d="M 250 520 L 284 428" stroke="#C9A872" stroke-width="4" stroke-linecap="round"/><path d="M 250 520 L 335 471" stroke="#C9A872" stroke-width="4" stroke-linecap="round"/><line x1="250" y1="400" x2="250" y2="640" stroke="#C9A872" stroke-width="6"/></g></svg>