<svg xmlns="http://www.w3.org/2000/svg" width="480" height="96" viewBox="0 0 480 96"><path d="M -52 70 Q -32 30 0 34 Q 34 38 36 66 Q 36 86 18 84 Q 4 82 6 66" fill="none" stroke="#F5E9D0" stroke-width="5" stroke-linecap="round"/><path d="M 36 78 Q 68 58 108 66" fill="none" stroke="#F5E9D0" stroke-width="5" stroke-linecap="round"/><path d="M 108 70 Q 128 30 160 34 Q 194 38 196 66 Q 196 86 178 84 Q 164 82 166 66" fill="none" stroke="#F5E9D0" stroke-width="5" stroke-linecap="round"/><path d="M 196 78 Q 228 58 268 66" fill="none" stroke="#F5E9D0" stroke-width="5" stroke-linecap="round"/><path d="M 268 70 Q 288 30 320 34 Q 354 38 356 66 Q 356 86 338 84 Q 324 82 326 66" fill="none" stroke="#F5E9D0" stroke-width="5" stroke-linecap="round"/><path d="M 356 78 Q 388 58 428 66" fill="none" stroke="#F5E9D0" stroke-width="5" stroke-linecap="round"/><path d="M 428 70 Q 448 30 480 34 Q 514 38 516 66 Q 516 86 498 84 Q 484 82 486 66" fill="none" stroke="#F5E9D0" stroke-width="5" stroke-linecap="round"/><path d="M 516 78 Q 548 58 588 66" fill="none" stroke="#F5E9D0" stroke-width="5" stroke-linecap="round"/></svg>